<svg xmlns="http://www.w3.org/2000/svg" xmlns:xlink="http://www.w3.org/1999/xlink" id="processonSvg1000" viewBox="82.0 55.0 610.0 727.0" width="610.0" height="727.0"><defs id="ProcessOnDefs1001"/><g id="ProcessOnG1002"><path id="ProcessOnPath1003" d="M82.0 55.0H692.0V782.0H82.0V55.0Z" fill="#ffffff"/><g id="ProcessOnG1004"><g id="ProcessOnG1005" transform="matrix(1.0,0.0,0.0,1.0,102.0,75.0)" opacity="1.0"><path id="ProcessOnPath1006" d="M0.0 4.0Q0.0 0.0 4.0 0.0L201.0 0.0Q205.0 0.0 205.0 4.0L205.0 249.0Q205.0 253.0 201.0 253.0L4.0 253.0Q0.0 253.0 0.0 249.0Z" stroke="#323232" stroke-width="2.0" stroke-dasharray="none" fill="#ffffed"/><path id="ProcessOnPath1007" d="M0.0 30.0L205.0 30.0" stroke="#323232" stroke-width="2.0" stroke-dasharray="none" fill="none"/><path id="ProcessOnPath1008" d="M0.0 0.0L205.0 0.0L205.0 253.0L0.0 253.0Z" stroke="#323232" stroke-width="0.0" stroke-dasharray="none" fill="none"/><g id="ProcessOnG1009" transform="matrix(1.0,0.0,0.0,1.0,10.0,6.875)"><text id="ProcessOnText1010" fill="#323232" font-weight="bold" font-style="normal" text-decoration="blink" font-family="Arial,宋体" text-anchor="start" font-size="13" x="0.0" y="13.325">user</text></g><g id="ProcessOnG1011" transform="matrix(1.0,0.0,0.0,1.0,10.0,44.0)"><text id="ProcessOnText1012" fill="#323232" font-weight="bold" font-style="normal" text-decoration="blink" font-family="Arial,宋体" text-anchor="start" font-size="13" x="0.0" y="13.325">id</text><text id="ProcessOnText1013" fill="#323232" font-weight="bold" font-style="normal" text-decoration="blink" font-family="Arial,宋体" text-anchor="start" font-size="13" x="0.0" y="29.575">email</text><text id="ProcessOnText1014" fill="#323232" font-weight="bold" font-style="normal" text-decoration="blink" font-family="Arial,宋体" text-anchor="start" font-size="13" x="0.0" y="45.825">name</text><text id="ProcessOnText1015" fill="#323232" font-weight="bold" font-style="normal" text-decoration="blink" font-family="Arial,宋体" text-anchor="start" font-size="13" x="0.0" y="62.075">password</text><text id="ProcessOnText1016" fill="#323232" font-weight="bold" font-style="normal" text-decoration="blink" font-family="Arial,宋体" text-anchor="start" font-size="13" x="0.0" y="78.325">gender</text><text id="ProcessOnText1017" fill="#323232" font-weight="bold" font-style="normal" text-decoration="blink" font-family="Arial,宋体" text-anchor="start" font-size="13" x="0.0" y="94.575">signature</text><text id="ProcessOnText1018" fill="#323232" font-weight="bold" font-style="normal" text-decoration="blink" font-family="Arial,宋体" text-anchor="start" font-size="13" x="0.0" y="110.825">personal_web</text><text id="ProcessOnText1019" fill="#323232" font-weight="bold" font-style="normal" text-decoration="blink" font-family="Arial,宋体" text-anchor="start" font-size="13" x="0.0" y="127.075">github</text><text id="ProcessOnText1020" fill="#323232" font-weight="bold" font-style="normal" text-decoration="blink" font-family="Arial,宋体" text-anchor="start" font-size="13" x="0.0" y="143.325">avatar_url</text><text id="ProcessOnText1021" fill="#323232" font-weight="bold" font-style="normal" text-decoration="blink" font-family="Arial,宋体" text-anchor="start" font-size="13" x="0.0" y="159.575">integration</text><text id="ProcessOnText1022" fill="#323232" font-weight="bold" font-style="normal" text-decoration="blink" font-family="Arial,宋体" text-anchor="start" font-size="13" x="0.0" y="175.825">create_at</text><text id="ProcessOnText1023" fill="#323232" font-weight="bold" font-style="normal" text-decoration="blink" font-family="Arial,宋体" text-anchor="start" font-size="13" x="0.0" y="192.075">update_at</text></g></g><g id="ProcessOnG1024" transform="matrix(1.0,0.0,0.0,1.0,102.0,361.0)" opacity="1.0"><path id="ProcessOnPath1025" d="M0.0 4.0Q0.0 0.0 4.0 0.0L201.0 0.0Q205.0 0.0 205.0 4.0L205.0 200.0Q205.0 204.0 201.0 204.0L4.0 204.0Q0.0 204.0 0.0 200.0Z" stroke="#323232" stroke-width="2.0" stroke-dasharray="none" fill="#ffffed"/><path id="ProcessOnPath1026" d="M0.0 30.0L205.0 30.0" stroke="#323232" stroke-width="2.0" stroke-dasharray="none" fill="none"/><path id="ProcessOnPath1027" d="M0.0 0.0L205.0 0.0L205.0 204.0L0.0 204.0Z" stroke="#323232" stroke-width="0.0" stroke-dasharray="none" fill="none"/><g id="ProcessOnG1028" transform="matrix(1.0,0.0,0.0,1.0,10.0,6.875)"><text id="ProcessOnText1029" fill="#323232" font-weight="bold" font-style="normal" text-decoration="blink" font-family="Arial,宋体" text-anchor="start" font-size="13" x="0.0" y="13.325">topic</text></g><g id="ProcessOnG1030" transform="matrix(1.0,0.0,0.0,1.0,10.0,39.375)"><text id="ProcessOnText1031" fill="#323232" font-weight="bold" font-style="normal" text-decoration="blink" font-family="Arial,宋体" text-anchor="start" font-size="13" x="0.0" y="13.325">id</text><text id="ProcessOnText1032" fill="#323232" font-weight="bold" font-style="normal" text-decoration="blink" font-family="Arial,宋体" text-anchor="start" font-size="13" x="0.0" y="29.575">user_id</text><text id="ProcessOnText1033" fill="#323232" font-weight="bold" font-style="normal" text-decoration="blink" font-family="Arial,宋体" text-anchor="start" font-size="13" x="0.0" y="45.825">title</text><text id="ProcessOnText1034" fill="#323232" font-weight="bold" font-style="normal" text-decoration="blink" font-family="Arial,宋体" text-anchor="start" font-size="13" x="0.0" y="62.075">content</text><text id="ProcessOnText1035" fill="#323232" font-weight="bold" font-style="normal" text-decoration="blink" font-family="Arial,宋体" text-anchor="start" font-size="13" x="0.0" y="78.325">pv</text><text id="ProcessOnText1036" fill="#323232" font-weight="bold" font-style="normal" text-decoration="blink" font-family="Arial,宋体" text-anchor="start" font-size="13" x="0.0" y="94.575">reply_count</text><text id="ProcessOnText1037" fill="#323232" font-weight="bold" font-style="normal" text-decoration="blink" font-family="Arial,宋体" text-anchor="start" font-size="13" x="0.0" y="110.825">last_reply_id</text><text id="ProcessOnText1038" fill="#323232" font-weight="bold" font-style="normal" text-decoration="blink" font-family="Arial,宋体" text-anchor="start" font-size="13" x="0.0" y="127.075">create_at</text><text id="ProcessOnText1039" fill="#323232" font-weight="bold" font-style="normal" text-decoration="blink" font-family="Arial,宋体" text-anchor="start" font-size="13" x="0.0" y="143.325">update_at</text></g></g><g id="ProcessOnG1040" transform="matrix(1.0,0.0,0.0,1.0,467.0,593.0)" opacity="1.0"><path id="ProcessOnPath1041" d="M0.0 4.0Q0.0 0.0 4.0 0.0L201.0 0.0Q205.0 0.0 205.0 4.0L205.0 131.0Q205.0 135.0 201.0 135.0L4.0 135.0Q0.0 135.0 0.0 131.0Z" stroke="#323232" stroke-width="2.0" stroke-dasharray="none" fill="#ffffed"/><path id="ProcessOnPath1042" d="M0.0 30.0L205.0 30.0" stroke="#323232" stroke-width="2.0" stroke-dasharray="none" fill="none"/><path id="ProcessOnPath1043" d="M0.0 0.0L205.0 0.0L205.0 135.0L0.0 135.0Z" stroke="#323232" stroke-width="0.0" stroke-dasharray="none" fill="none"/><g id="ProcessOnG1044" transform="matrix(1.0,0.0,0.0,1.0,10.0,6.875)"><text id="ProcessOnText1045" fill="#323232" font-weight="bold" font-style="normal" text-decoration="blink" font-family="Arial,宋体" text-anchor="start" font-size="13" x="0.0" y="13.325">last_reply</text></g><g id="ProcessOnG1046" transform="matrix(1.0,0.0,0.0,1.0,10.0,39.875)"><text id="ProcessOnText1047" fill="#323232" font-weight="bold" font-style="normal" text-decoration="blink" font-family="Arial,宋体" text-anchor="start" font-size="13" x="0.0" y="13.325">id</text><text id="ProcessOnText1048" fill="#323232" font-weight="bold" font-style="normal" text-decoration="blink" font-family="Arial,宋体" text-anchor="start" font-size="13" x="0.0" y="29.575">user_id</text><text id="ProcessOnText1049" fill="#323232" font-weight="bold" font-style="normal" text-decoration="blink" font-family="Arial,宋体" text-anchor="start" font-size="13" x="0.0" y="45.825">reply_id</text><text id="ProcessOnText1050" fill="#323232" font-weight="bold" font-style="normal" text-decoration="blink" font-family="Arial,宋体" text-anchor="start" font-size="13" x="0.0" y="62.075">create_at</text><text id="ProcessOnText1051" fill="#323232" font-weight="bold" font-style="normal" text-decoration="blink" font-family="Arial,宋体" text-anchor="start" font-size="13" x="0.0" y="78.325">update_at</text></g></g><g id="ProcessOnG1052" transform="matrix(1.0,0.0,0.0,1.0,102.0,593.0)" opacity="1.0"><path id="ProcessOnPath1053" d="M0.0 4.0Q0.0 0.0 4.0 0.0L201.0 0.0Q205.0 0.0 205.0 4.0L205.0 165.0Q205.0 169.0 201.0 169.0L4.0 169.0Q0.0 169.0 0.0 165.0Z" stroke="#323232" stroke-width="2.0" stroke-dasharray="none" fill="#ffffed"/><path id="ProcessOnPath1054" d="M0.0 30.0L205.0 30.0" stroke="#323232" stroke-width="2.0" stroke-dasharray="none" fill="none"/><path id="ProcessOnPath1055" d="M0.0 0.0L205.0 0.0L205.0 169.0L0.0 169.0Z" stroke="#323232" stroke-width="0.0" stroke-dasharray="none" fill="none"/><g id="ProcessOnG1056" transform="matrix(1.0,0.0,0.0,1.0,10.0,6.875)"><text id="ProcessOnText1057" fill="#323232" font-weight="bold" font-style="normal" text-decoration="blink" font-family="Arial,宋体" text-anchor="start" font-size="13" x="0.0" y="13.325">reply</text></g><g id="ProcessOnG1058" transform="matrix(1.0,0.0,0.0,1.0,10.0,39.625)"><text id="ProcessOnText1059" fill="#323232" font-weight="bold" font-style="normal" text-decoration="blink" font-family="Arial,宋体" text-anchor="start" font-size="13" x="0.0" y="13.325">id</text><text id="ProcessOnText1060" fill="#323232" font-weight="bold" font-style="normal" text-decoration="blink" font-family="Arial,宋体" text-anchor="start" font-size="13" x="0.0" y="29.575">user_id</text><text id="ProcessOnText1061" fill="#323232" font-weight="bold" font-style="normal" text-decoration="blink" font-family="Arial,宋体" text-anchor="start" font-size="13" x="0.0" y="45.825">topic_id</text><text id="ProcessOnText1062" fill="#323232" font-weight="bold" font-style="normal" text-decoration="blink" font-family="Arial,宋体" text-anchor="start" font-size="13" x="0.0" y="62.075">content</text><text id="ProcessOnText1063" fill="#323232" font-weight="bold" font-style="normal" text-decoration="blink" font-family="Arial,宋体" text-anchor="start" font-size="13" x="0.0" y="78.325">support_count</text><text id="ProcessOnText1064" fill="#323232" font-weight="bold" font-style="normal" text-decoration="blink" font-family="Arial,宋体" text-anchor="start" font-size="13" x="0.0" y="94.575">create_at</text><text id="ProcessOnText1065" fill="#323232" font-weight="bold" font-style="normal" text-decoration="blink" font-family="Arial,宋体" text-anchor="start" font-size="13" x="0.0" y="110.825">update_at</text></g></g><g id="ProcessOnG1066" transform="matrix(1.0,0.0,0.0,1.0,467.0,75.0)" opacity="1.0"><path id="ProcessOnPath1067" d="M0.0 4.0Q0.0 0.0 4.0 0.0L201.0 0.0Q205.0 0.0 205.0 4.0L205.0 131.0Q205.0 135.0 201.0 135.0L4.0 135.0Q0.0 135.0 0.0 131.0Z" stroke="#323232" stroke-width="2.0" stroke-dasharray="none" fill="#ffffed"/><path id="ProcessOnPath1068" d="M0.0 30.0L205.0 30.0" stroke="#323232" stroke-width="2.0" stroke-dasharray="none" fill="none"/><path id="ProcessOnPath1069" d="M0.0 0.0L205.0 0.0L205.0 135.0L0.0 135.0Z" stroke="#323232" stroke-width="0.0" stroke-dasharray="none" fill="none"/><g id="ProcessOnG1070" transform="matrix(1.0,0.0,0.0,1.0,10.0,6.875)"><text id="ProcessOnText1071" fill="#323232" font-weight="bold" font-style="normal" text-decoration="blink" font-family="Arial,宋体" text-anchor="start" font-size="13" x="0.0" y="13.325">support</text></g><g id="ProcessOnG1072" transform="matrix(1.0,0.0,0.0,1.0,10.0,39.875)"><text id="ProcessOnText1073" fill="#323232" font-weight="bold" font-style="normal" text-decoration="blink" font-family="Arial,宋体" text-anchor="start" font-size="13" x="0.0" y="13.325">id</text><text id="ProcessOnText1074" fill="#323232" font-weight="bold" font-style="normal" text-decoration="blink" font-family="Arial,宋体" text-anchor="start" font-size="13" x="0.0" y="29.575">user_id</text><text id="ProcessOnText1075" fill="#323232" font-weight="bold" font-style="normal" text-decoration="blink" font-family="Arial,宋体" text-anchor="start" font-size="13" x="0.0" y="45.825">reply_id</text><text id="ProcessOnText1076" fill="#323232" font-weight="bold" font-style="normal" text-decoration="blink" font-family="Arial,宋体" text-anchor="start" font-size="13" x="0.0" y="62.075">create_at</text><text id="ProcessOnText1077" fill="#323232" font-weight="bold" font-style="normal" text-decoration="blink" font-family="Arial,宋体" text-anchor="start" font-size="13" x="0.0" y="78.325">update_at</text></g></g><g id="ProcessOnG1078" transform="matrix(1.0,0.0,0.0,1.0,467.0,351.0)" opacity="1.0"><path id="ProcessOnPath1079" d="M0.0 4.0Q0.0 0.0 4.0 0.0L201.0 0.0Q205.0 0.0 205.0 4.0L205.0 163.5Q205.0 167.5 201.0 167.5L4.0 167.5Q0.0 167.5 0.0 163.5Z" stroke="#323232" stroke-width="2.0" stroke-dasharray="none" fill="#ffffed"/><path id="ProcessOnPath1080" d="M0.0 30.0L205.0 30.0" stroke="#323232" stroke-width="2.0" stroke-dasharray="none" fill="none"/><path id="ProcessOnPath1081" d="M0.0 0.0L205.0 0.0L205.0 167.5L0.0 167.5Z" stroke="#323232" stroke-width="0.0" stroke-dasharray="none" fill="none"/><g id="ProcessOnG1082" transform="matrix(1.0,0.0,0.0,1.0,10.0,6.875)"><text id="ProcessOnText1083" fill="#323232" font-weight="bold" font-style="normal" text-decoration="blink" font-family="Arial,宋体" text-anchor="start" font-size="13" x="0.0" y="13.325">message</text></g><g id="ProcessOnG1084" transform="matrix(1.0,0.0,0.0,1.0,10.0,39.625)"><text id="ProcessOnText1085" fill="#323232" font-weight="bold" font-style="normal" text-decoration="blink" font-family="Arial,宋体" text-anchor="start" font-size="13" x="0.0" y="13.325">id</text><text id="ProcessOnText1086" fill="#323232" font-weight="bold" font-style="normal" text-decoration="blink" font-family="Arial,宋体" text-anchor="start" font-size="13" x="0.0" y="29.575">reply_id</text><text id="ProcessOnText1087" fill="#323232" font-weight="bold" font-style="normal" text-decoration="blink" font-family="Arial,宋体" text-anchor="start" font-size="13" x="0.0" y="45.825">target_id</text><text id="ProcessOnText1088" fill="#323232" font-weight="bold" font-style="normal" text-decoration="blink" font-family="Arial,宋体" text-anchor="start" font-size="13" x="0.0" y="62.075">type</text><text id="ProcessOnText1089" fill="#323232" font-weight="bold" font-style="normal" text-decoration="blink" font-family="Arial,宋体" text-anchor="start" font-size="13" x="0.0" y="78.325">had_read</text><text id="ProcessOnText1090" fill="#323232" font-weight="bold" font-style="normal" text-decoration="blink" font-family="Arial,宋体" text-anchor="start" font-size="13" x="0.0" y="94.575">create_at</text><text id="ProcessOnText1091" fill="#323232" font-weight="bold" font-style="normal" text-decoration="blink" font-family="Arial,宋体" text-anchor="start" font-size="13" x="0.0" y="110.825">update_at</text></g></g></g></g></svg>