<svg version="1.1" xmlns="http://www.w3.org/2000/svg" xmlns:xlink="http://www.w3.org/1999/xlink" width="48" height="48"><defs><linearGradient x1="14.35808" y1="14.22989" x2="54.85513" y2="54.98332" gradientUnits="userSpaceOnUse" id="color-1"><stop offset="0" stop-color="#000000" stop-opacity="0.7"></stop><stop offset="1" stop-color="#000000" stop-opacity="0"></stop></linearGradient><filter id="dropshadow-base"><feColorMatrix type="matrix" values="0 0 0 0 0  0 0 0 0 0  0 0 0 0 0  0 0 0 .8 0"></feColorMatrix> <feOffset dx="0" dy="1"></feOffset> <feGaussianBlur stdDeviation="1"></feGaussianBlur> <feComposite in="SourceGraphic"></feComposite></filter><filter id="dropshadow-banner" x="-10%" y="-10%" width="120%" height="130%"><feColorMatrix type="matrix" values="0 0 0 0 0  0 0 0 0 0  0 0 0 0 0  0 0 0 .4 0"></feColorMatrix> <feOffset dx="0" dy="1"></feOffset> <feGaussianBlur stdDeviation="0.5"></feGaussianBlur> <feComposite in="SourceGraphic"></feComposite></filter></defs><g fill="none" fill-rule="nonzero" stroke="none" stroke-width="none" stroke-linecap="butt" stroke-linejoin="miter" stroke-miterlimit="10" stroke-dasharray="" stroke-dashoffset="0" font-family="none" font-weight="none" font-size="none" text-anchor="none" style="mix-blend-mode: normal"><path d="M2,24c0,-12.15026 9.84974,-22 22,-22c12.15026,0 22,9.84974 22,22c0,12.15026 -9.84974,22 -22,22c-12.15026,0 -22,-9.84974 -22,-22z" id="base 1 5" fill="#512da8" stroke-width="1"></path><path d="M25.28871,14.47417l-0.06198,0.0474l0.1843,0.1843c0.08402,-0.0137 0.16473,-0.04041 0.24348,-0.06885c0.05008,0.03725 0.0979,0.07667 0.14152,0.12029l0.47693,0.47693c0.1798,-0.0293 0.37639,-0.04237 0.60049,-0.02846c0.16407,-0.17622 0.15799,-0.52136 0.12275,-0.69029c0.79237,-0.09358 1.66739,-0.0158 2.39657,0.08021l0.10342,0.10342l0.03755,-0.02929l-0.02066,-0.07535c0.11545,-0.03281 0.10452,0.05712 0.20296,0.04132l0.28026,0.28026c0.01153,-0.00189 0.0227,-0.00432 0.03332,-0.0073l-0.14218,-0.14218c-0.00297,-0.00297 -0.00582,-0.00605 -0.00855,-0.00924l0.06198,-0.0474l-0.02188,-0.07413c0.21875,0.03889 0.46424,0.05104 0.73161,0.0401c0.00851,-0.03281 0.04132,-0.0401 0.04132,-0.08142l0.06077,0.02066l0.06198,-0.02066c0.04495,0.03474 0.10108,0.05831 0.14092,0.09816l0.02543,0.02543c0.22748,0.0392 0.23343,-0.14196 0.40241,-0.16369c0.21511,0.20417 0.73039,0.36338 0.97467,0.08142l0.1044,0.1044c0.11579,0.01075 0.30596,-0.06614 0.46557,-0.02298l0.25864,0.25864c0.10834,0.04958 0.22688,0.08662 0.3089,0.14727c0.00592,0.00433 0.0112,0.00892 0.01594,0.01366l0.10789,0.10789c0.00004,-0.00001 0.00009,-0.00001 0.00013,-0.00002c-0.00001,0.00004 -0.00002,0.00008 -0.00004,0.00011l12.12412,12.12412c-1.44707,9.41672 -8.86511,16.86516 -18.2667,18.35789l-12.96707,-12.96707c-0.01193,-0.01193 -0.02059,-0.02713 -0.0252,-0.04634c0.36338,-1.08891 -0.14219,-2.53511 0.20296,-3.73705c0.14584,-0.03281 0.19688,0.09115 0.28438,0c-0.02699,-0.66338 0.05243,-1.21945 0.07541,-1.83261l-0.40111,-0.40111c-0.07049,-0.69393 -0.17014,-1.7233 0,-2.39657c0.04222,-0.01035 0.06456,-0.00068 0.08061,0.01538l0.06745,0.06745c0.01348,0.00393 0.03066,0.00418 0.05367,-0.00141c0,-0.02674 0,-0.05469 0,-0.08021l0.05469,-0.04983l-0.01458,-0.07292c0.03928,-0.01664 0.06925,0.00468 0.09464,0.03008l0.04644,0.04644c0.0205,0.01493 0.03973,0.01272 0.06187,-0.03642c-0.06543,-0.20869 -0.01673,-0.50951 -0.00259,-0.72366l-0.15479,-0.15479c-0.29535,-0.29535 -0.32023,-0.98189 -0.08568,-1.35528c-0.13638,-0.40803 -0.20296,-0.88385 -0.26527,-1.36468l-0.17082,-0.17082c-0.03594,-0.03594 -0.06001,-0.10076 -0.05003,-0.21209c0.09723,-0.01702 0.0875,0.07535 0.20296,0.04132c-0.10636,-0.26426 0.00295,-0.72737 -0.02644,-1.04121l-0.09631,-0.09631l-0.00057,-0.00179l-0.07964,-0.07964c0,-0.01337 0,-0.02674 0,-0.04132l0.06077,-0.01944l0.01944,-0.06077l-0.08021,-0.08021c-0.02431,-0.12882 0.07656,-0.12639 0,-0.20296c0.07292,-0.00486 0.08507,0.04983 0.16163,0.0401c0.05658,-0.94983 0.1382,-1.87343 0.12202,-2.896l-0.11078,-0.11078c-0.01555,-0.01555 -0.02279,-0.03951 -0.01124,-0.08251c0.01944,-0.35973 0.09115,-0.6672 0.12153,-1.01477c0.34636,0.33299 1.06338,0.16771 1.34169,-0.12153l0.20172,0.20172c0.22355,-0.00681 0.44378,-0.0103 0.56878,0.08145c0.06198,-0.0474 0.04861,-0.16893 0.16285,-0.16163c0.006,0.0021 0.01093,0.00528 0.01499,0.00934l0.12287,0.12287c0.08745,-0.07652 0.22019,-0.09871 0.29523,-0.02367l0.11445,0.11445c0.23892,-0.2602 0.85204,0.07288 1.11863,-0.14158c0.1908,0.13125 0.58091,0.17014 0.69029,-0.04132l0.18067,0.18067c0.46752,0.27638 1.42103,-0.06467 1.93152,0.22524c0.09479,-0.0401 0.04983,-0.22119 0.12275,-0.28438c0.14827,0.01337 0.26372,-0.00608 0.3658,-0.0401c0.0401,-0.05469 0.06684,-0.12275 0.12153,-0.16285l0.05763,0.05763l0.0639,-0.01752l0.01304,0.01304c0.10915,0.09766 0.00802,-0.31847 0.14981,-0.29621c0.15313,0.02674 0.429,0.08993 0.56876,0c-0.01094,-0.06563 0.03889,-0.07049 0.04132,-0.12153c0.01337,0 0.02552,0 0.0401,0l0.0561,0.0561c0.20453,0.05433 0.40814,0.11223 0.63419,0.14564l0.26009,0.26009c0.01034,-0.0041 0.01869,-0.00936 0.02429,-0.01582c0.00075,-0.04285 -0.01058,-0.07267 -0.03142,-0.09351c-0.01285,-0.01285 -0.02932,-0.02228 -0.04879,-0.02924l0.02066,-0.06077l-0.02066,-0.06077c0.12396,-0.07778 0.32935,-0.07413 0.40469,-0.20296c0.01337,0 0.02795,0 0.04132,0l0,0l0.00001,0l0.14452,0.14452c0.2406,0.10715 0.65995,-0.04013 0.87025,0.09976z" fill="url(#color-1)" stroke-width="1"></path><path d="M24.27394,14.22989c0.15313,0.34758 0.74984,0.06806 1.01477,0.24428l-0.06198,0.0474l0.02188,0.07413c-0.09236,-0.01094 -0.15313,0.01094 -0.16285,0.08143c0.20903,0.07778 0.39376,0.02309 0.56876,-0.0401c0.19445,0.14462 0.35487,0.32205 0.36702,0.65019c0.24671,-0.0632 0.51893,-0.10209 0.85192,-0.08143c0.16407,-0.17622 0.15799,-0.52136 0.12275,-0.69029c0.79238,-0.09358 1.66739,-0.0158 2.39657,0.08021l-0.02066,0.07535l0.06076,0.0474c-0.03889,0.05469 -0.10816,0.08021 -0.16163,0.12153l-0.0474,-0.06076l-0.07535,0.01944c-0.06441,-0.03646 -0.15556,-0.05955 -0.16285,0c0.03889,0.00122 0.0316,0.04983 0.0401,0.08143c0.02795,0 0.05469,0 0.08143,0c0.0401,-0.08143 0.0875,-0.02066 0.0875,-0.02066l0.07535,-0.02066c0.02795,0.20295 0.18837,-0.05104 0.20295,-0.12153l0.06076,-0.0474l-0.02066,-0.07535c0.11545,-0.03281 0.10452,0.05712 0.20295,0.04132l-0.02066,0.07413l0.06076,0.0474c-0.15313,0.17014 0.31841,0.22483 0.36581,0.08143c-0.1033,-0.00365 -0.19323,-0.02309 -0.24306,-0.08143l0.06198,-0.0474l-0.02188,-0.07413c0.21875,0.03889 0.46424,0.05104 0.73161,0.0401c0.00851,-0.03281 0.04132,-0.0401 0.04132,-0.08143l0.06076,0.02066l0.06198,-0.02066c0.05347,0.04132 0.12275,0.06684 0.16163,0.12275c0.23212,0.04254 0.23698,-0.14097 0.40713,-0.16285c0.21511,0.20417 0.73039,0.36337 0.97467,0.08143c0.02552,0.21997 0.33178,0.01701 0.56998,0.08143c0.06076,0.25521 0.39497,0.2783 0.56754,0.40591c0.06806,0.04983 0.05104,0.13247 0.12396,0.12153c-0.09479,0.29896 0.02309,0.80939 -0.16407,1.01599c0.31962,1.51548 0.13368,3.05405 0.12275,4.75303c-0.21268,-0.00851 -0.40591,0 -0.56876,0.0401c-0.00365,0.23455 0.11059,0.34879 0.16285,0.52866c-0.5323,0.22118 -0.27587,0.99533 0.12153,1.17762c-0.0474,0.38647 0.03038,0.64654 0.20295,0.81304c-0.12396,0.20782 -0.19688,0.54202 -0.08021,0.77171c-0.14462,0.17865 -0.12639,0.52379 -0.12275,0.85314c-0.12761,0.05347 -0.24671,-0.21875 -0.28316,0c-0.01337,0.29653 0.48977,0.15313 0.61008,0.20295c-0.02795,2.59952 0.05347,5.30843 -0.04132,7.84111c-0.52501,-0.24549 -1.47537,-0.78387 -2.11219,-0.28438c0.10209,0.03281 0.21754,0.05347 0.36581,0.03889l-0.02066,0.0632l0.06076,0.01944c-0.0559,0.02552 -0.00486,0.15677 -0.08021,0.16407c-0.12518,0.02795 -0.07778,-0.11302 -0.20295,-0.08143c-0.37674,0.36094 -1.20315,0.23091 -1.62485,0c-0.32935,0.12518 -0.79481,0.07656 -0.97589,-0.16407c-0.15556,0.06198 -0.28803,0.14584 -0.40591,0.24549c-0.39133,-0.0401 -0.63439,0.06927 -0.93457,0.12153c-0.07049,-0.04132 -0.05104,-0.2382 -0.16285,-0.12153l-0.0474,-0.06198l-0.07535,0.01944c-0.08629,-0.09479 -0.33421,-0.01094 -0.36581,0.08143l-0.07535,-0.01944l-0.0474,0.06076c-0.55661,0.10573 -1.39395,-0.06806 -1.82781,0.16163l-0.06198,-0.01944l-0.06076,-0.02066c-0.11424,-0.06198 -0.16771,0.01337 -0.32448,-0.04254c-0.00122,0.0717 0.02917,0.10695 0.08143,0.12396l-0.02188,0.07413l0.06198,0.04861c-0.22848,0.1592 -0.37917,-0.10938 -0.48733,-0.20295c-0.13125,0.00243 -0.02795,0.24063 -0.20295,0.20295c-0.175,-0.25157 -0.6988,-0.30261 -1.0962,-0.20295c-0.13854,0.09236 0.18594,0.15677 0.0401,0.24184c-0.20417,-0.04132 -0.23091,0.09236 -0.40591,0.08143c-0.10695,-0.31233 -0.35487,-0.4849 -0.48733,-0.77293l-0.04254,-0.01701l-0.0401,0.01944c0.00365,-0.05712 0.00608,-0.11424 -0.04132,-0.12153c0.00608,0.03403 -0.01701,0.03767 -0.04132,0.0401c0,0.02674 0,0.05469 0,0.08021l-0.02066,0.04132l0.02066,0.0401c-0.16285,0.0401 -0.35608,0.04983 -0.56876,0.04132c-0.12882,-0.00608 -0.12031,-0.15191 -0.24306,-0.16285c-0.12761,-0.00729 -0.01701,0.22726 -0.20295,0.16285c-0.19566,-0.03646 -0.17014,-0.29167 -0.3257,-0.36581c-0.18229,-0.02188 -0.11302,0.21025 -0.20295,0.28316c-0.04254,-0.09358 -0.13854,-0.13125 -0.12153,-0.28316c-0.18108,0.00851 -0.18229,0.19566 -0.28438,0.28316c-0.0401,-0.08264 -0.15556,-0.0875 -0.28438,-0.08021l-0.06076,-0.02188l-0.01944,0.06076c-0.08386,-0.02188 -0.08021,-0.12153 -0.16285,-0.03889c-0.11181,-0.01823 -0.03767,0.1507 -0.12153,0.16285c-0.01458,-0.20174 -0.10695,0.03281 -0.20295,0c-0.02431,-0.12518 -0.01094,-0.28803 -0.16285,-0.28438c-0.07413,0.0474 -0.02674,0.21511 -0.20295,0.16163c-0.08386,-0.01094 -0.00972,-0.17865 -0.12153,-0.16163c-0.05833,0.11788 -0.17257,0.17986 -0.36702,0.16163c-0.06076,0.04861 -0.0474,0.17136 -0.16163,0.16407c-0.00608,-0.18229 0.01458,-0.39376 -0.16163,-0.40591c-0.21268,-0.06441 -0.02674,0.27223 -0.20417,0.24184c-0.18229,0.0632 0.02188,-0.26494 -0.16163,-0.20295c-0.16042,-0.01094 -0.01215,0.28681 -0.12153,0.32692c-0.01701,-0.12153 -0.19202,-0.07899 -0.24306,-0.16285l0.01944,-0.06198l-0.06076,-0.02066c0.00729,-0.03281 0.04132,-0.0401 0.04132,-0.08143c-0.10087,-0.00486 -0.19809,-0.00608 -0.20417,0.08143l-0.06076,0.02066l0.02188,0.06198c-0.32327,0.03767 -0.53959,-0.02917 -0.73161,-0.12275c-0.05712,0.11667 0.11059,0.2066 0,0.24306c-0.1507,-0.18716 -0.4448,-0.00486 -0.61008,0.04132c0.01215,-0.10816 0.01458,-0.20417 -0.12153,-0.16285l-0.06076,-0.02188l-0.02188,0.06076c-0.0401,0 -0.03038,-0.04861 -0.0401,-0.08021c-0.21632,-0.06441 -0.21025,0.30139 -0.32448,0.20417c-0.07656,-0.06076 -0.00486,-0.26615 -0.08143,-0.32692c-0.16163,-0.02795 -0.45088,0.0717 -0.48733,-0.08021c0.36337,-1.08891 -0.14219,-2.53511 0.20295,-3.73704c0.14584,-0.03281 0.19688,0.09115 0.28438,0c-0.0316,-0.77658 0.08264,-1.4061 0.08143,-2.15229c-0.1592,-0.00243 -0.30504,-0.02066 -0.40713,-0.08143c-0.07049,-0.69394 -0.17014,-1.72329 0,-2.39657c0.12396,-0.03038 0.07656,0.11181 0.20174,0.08143c0,-0.02674 0,-0.05469 0,-0.08021l0.05469,-0.04983l-0.01458,-0.07292c0.1033,-0.04375 0.14219,0.175 0.20295,0.0401c-0.07049,-0.22483 -0.00851,-0.55661 0,-0.77171c-0.43872,-0.18108 -0.51407,-1.03057 -0.24306,-1.462c-0.14948,-0.44723 -0.21511,-0.97589 -0.28316,-1.50333c-0.06684,0.02188 -0.22605,0.01337 -0.20295,-0.24428c0.09722,-0.01701 0.0875,0.07535 0.20295,0.04132c-0.11788,-0.29289 0.02917,-0.83005 -0.04132,-1.13752c-0.00122,-0.00608 -0.07413,0.00486 -0.08143,0l-0.01944,-0.06076l-0.06076,-0.02066c0,-0.01337 0,-0.02674 0,-0.04132l0.06076,-0.01944l0.01944,-0.06076c0.03646,0.26737 0.17743,0.02795 0,-0.0401l-0.01944,-0.06076l-0.06076,0.02066c-0.02431,-0.12882 0.07656,-0.12639 0,-0.20295c0.07292,-0.00486 0.08507,0.04983 0.16163,0.0401c0.05712,-0.95887 0.13976,-1.89101 0.12153,-2.92523c-0.01701,-0.07899 -0.15677,-0.03281 -0.12153,-0.16407c0.01944,-0.35973 0.09115,-0.6672 0.12153,-1.01477c0.34636,0.33299 1.06339,0.16771 1.34169,-0.12153c0.02309,0.09844 0.03403,0.20782 0.16163,0.20295c0.23698,-0.00729 0.4764,-0.01701 0.60886,0.08021c0.06198,-0.0474 0.04861,-0.16893 0.16285,-0.16163c0.06927,0.02431 -0.00365,0.19202 0.08021,0.20295c0.09358,-0.16893 0.38525,-0.21997 0.40834,0.04132l0.01944,0.06076l0.02066,0.06076c-0.01458,0 -0.02674,0 -0.0401,0c0,0.0401 0,0.08143 0,0.12275c0.0401,0 0.08021,0 0.12153,0c0.00365,-0.05833 0.00608,-0.11545 -0.04132,-0.12275l0.02188,-0.07413l-0.06076,-0.0474c0.22483,-0.29896 0.86286,0.05712 1.1363,-0.16285c0.1908,0.13125 0.58091,0.17014 0.69029,-0.04132c0.33785,0.5797 1.52155,0.07049 2.11219,0.40591c0.09479,-0.0401 0.04983,-0.22118 0.12275,-0.28438c0.14827,0.01337 0.26372,-0.00608 0.36581,-0.0401c0.0401,-0.05469 0.06684,-0.12275 0.12153,-0.16285l0.04618,0.06076l0.07535,-0.02066c0.13004,0.14219 0.0158,-0.30626 0.16285,-0.28316c0.15313,0.02674 0.429,0.08993 0.56876,0c-0.01094,-0.06563 0.03889,-0.07049 0.04132,-0.12153c0.01337,0 0.02552,0 0.0401,0c0,0.01337 0,0.02674 0,0.04132c0.22362,0.05833 0.44358,0.12396 0.69029,0.16042l-0.02066,0.07413l0.06198,0.0474c-0.14219,0.13247 0.18716,0.18716 0.24306,0.12275c0.00122,-0.06927 -0.02917,-0.10452 -0.08021,-0.12275l0.02066,-0.06076l-0.02066,-0.06076c0.12396,-0.07778 0.32935,-0.07413 0.40469,-0.20295c0.01337,0 0.02795,0 0.04132,0zM22.56644,14.67712c0.04132,0 0.08143,0 0.12275,0c0.00122,-0.06927 -0.0316,-0.1033 -0.08143,-0.12275c0.00243,0.05712 -0.01944,0.08993 -0.04132,0.12275zM23.21663,14.63702c0.04132,0 0.04861,0.03281 0.08143,0.0401c-0.00243,-0.0632 0.00608,-0.14097 -0.08143,-0.12153c0,0.02674 0,0.05347 0,0.08143zM24.67985,14.71844c0.09722,-0.09844 -0.13368,-0.10573 -0.12275,-0.04132c0,-0.00243 0.13733,0.02552 0.12275,0.04132zM27.48354,14.75855c0.02552,0 0.05469,0 0.08021,0c0,-0.02674 0,-0.05469 0,-0.08143c-0.02552,0 -0.05469,0 -0.08021,0c0,0.02674 0,0.05469 0,0.08143zM16.3514,15.00282c0.00122,-0.12396 -0.14219,-0.10087 -0.24428,-0.12153c-0.02309,0.14462 0.12153,0.12275 0.24428,0.12153zM30.93621,15.00282c0.0401,0 0.08143,0 0.12275,0c0,-0.04132 0,-0.08143 0,-0.12153c-0.0401,0 -0.08143,0 -0.12275,0c0,0.0401 0,0.08021 0,0.12153zM15.61979,15.04293c0.04132,0 0.08143,0 0.12275,0c0,-0.0401 0,-0.08143 0,-0.12153c-0.04132,0 -0.08143,0 -0.12275,0c0,0.0401 0,0.08143 0,0.12153zM18.18043,15.12435c0.0401,0 0.08021,0 0.12153,0c0,-0.04132 0,-0.08143 0,-0.12275c-0.04132,0 -0.08143,0 -0.12153,0c0,0.04132 0,0.08264 0,0.12275zM21.91747,15.24588c0.00608,-0.04861 0.0717,-0.09236 0,-0.12153c-0.00608,0.0474 -0.07292,0.09115 0,0.12153zM20.12977,19.14578c-0.11788,-0.03524 -0.04497,-0.06076 -0.0401,-0.16285c-0.24306,-0.19445 -0.58577,-0.41928 -0.93578,-0.65019c-0.48369,-0.31962 -0.80453,-0.71338 -1.50211,-0.60886c-0.41199,0.06198 -0.66963,0.28803 -1.13752,0.36581c0.3257,0.49098 0.76807,0.8896 1.17762,1.30037c1.19707,1.19585 2.34431,2.52053 3.53531,3.77715c0.1191,0.04132 0.19931,0.05833 0.24428,0.08143l-0.02188,0.06076l0.06198,-0.02066c-0.02917,0.23091 0.19445,0.31112 0.36581,0.48855c0.13125,0.13854 0.21997,0.33785 0.32448,0.44723c0.08629,0.08993 0.38768,0.18229 0.36459,0.40591c0.27344,0.07292 0.37553,0.3731 0.56876,0.56998c0.11181,0.11181 0.30018,0.175 0.40713,0.28316c0.03038,0.02917 0.02309,0.14097 0.0401,0.16285c0.04618,0.0559 0.11667,0.06198 0.16285,0.12153c0.14341,0.18959 0.34393,0.37188 0.52866,0.56998c0.12639,0.06806 0.11424,-0.20295 0.16163,-0.08143c0.12518,0.05469 0.01337,0.11424 0.04132,0.28438c0.13125,0.11302 0.20903,0.2783 0.36581,0.36581c-0.00729,-0.0474 0.00851,-0.07292 0.03889,-0.08021c0.06684,0.1507 0.14462,0.28803 0.28438,0.36581c-0.01094,-0.1191 0.01094,-0.13976 0.08143,-0.08143c0.08507,0.15677 -0.06076,0.06684 -0.0401,0.24428c0.52744,0.62709 1.25662,1.24082 1.82781,1.90923c0.19445,0.22726 0.44723,0.68543 0.73161,0.85314c0.53595,0.31598 1.76218,0.21754 2.47799,0.20295c-0.00608,-0.08629 0.06684,-0.0474 0.12275,-0.12275c0.24914,-0.33542 0.43751,-1.04151 0.65019,-1.70628c0.20052,-0.63196 0.45574,-1.11686 0.40591,-1.70506c-0.00486,-0.05104 -0.0559,-0.20903 -0.08143,-0.24428c-0.01337,-0.01944 -0.3415,-0.21268 -0.44601,-0.28438c-0.51286,-0.35244 -1.05123,-0.70366 -1.62485,-1.01477l0.01944,-0.06198l-0.06076,0.02188c-0.00972,-0.01458 0.01337,-0.07292 0,-0.08021c-2.60196,-1.81687 -5.31329,-3.50128 -7.92132,-5.32301c-0.08021,0 -0.16285,0 -0.24428,0c-0.10452,-0.31476 -0.3974,-0.32327 -0.56876,-0.32935c0.20052,-0.14584 -0.19445,-0.25278 -0.3257,-0.32448l-0.01944,-0.06076zM29.1084,21.09512c0.01458,0.05347 0.0717,0.06441 0.08021,0.12275c0.20903,-0.06927 0.18594,0.10816 0.40713,0.20295c0.09169,-0.89877 0.4193,-1.95802 0.40625,-2.70579c-0.00801,0.05208 -0.11861,-0.02759 -0.12309,-0.0578c0.08143,0.01337 0.12761,-0.00851 0.12275,-0.08021c-0.37796,-0.32448 -0.74498,-0.7547 -1.30037,-0.77293c-0.42292,-0.01337 -0.96373,0.24184 -1.46079,0.36581c-0.38403,0.09479 -0.75713,0.19202 -1.09742,0.28438c-0.11302,0.0316 -0.29167,-0.02674 -0.3257,0.12396c1.08891,0.84342 2.18025,1.72694 3.25093,2.47799l-0.02188,0.06076zM18.66655,30.55987c1.02814,0.07899 2.11219,-0.58213 3.21082,-0.81182c-0.04375,-0.08386 -0.1033,-0.2224 -0.16285,-0.28316c0.02066,0.02188 -0.02674,0.04983 -0.0401,0.0401c-0.30382,-0.23698 -0.56998,-0.62345 -0.89324,-0.93457c-0.8738,-0.83977 -1.86548,-1.77798 -2.76237,-2.60074c-0.30747,0.73404 -0.63196,1.52763 -0.97589,2.35525c-0.10573,0.25764 -0.32327,0.59185 -0.28438,0.81304c0.04861,0.26615 1.0087,0.8264 1.30037,1.0962c0.16285,0.15191 0.33056,0.26494 0.56998,0.32448l0.01944,0.0632z" fill="none" stroke-width="0"></path><path d="M24.27394,14.22989c0.15313,0.34758 0.74984,0.06806 1.01477,0.24428l-0.06198,0.0474l0.02188,0.07413c-0.09236,-0.01094 -0.15313,0.01094 -0.16285,0.08143c0.20903,0.07778 0.39376,0.02309 0.56876,-0.0401c0.19445,0.14462 0.35487,0.32205 0.36702,0.65019c0.24671,-0.0632 0.51893,-0.10209 0.85192,-0.08143c0.16407,-0.17622 0.15799,-0.52136 0.12275,-0.69029c0.79238,-0.09358 1.66739,-0.0158 2.39657,0.08021l-0.02066,0.07535l0.06076,0.0474c-0.03889,0.05469 -0.10816,0.08021 -0.16163,0.12153l-0.0474,-0.06076l-0.07535,0.01944c-0.06441,-0.03646 -0.15556,-0.05955 -0.16285,0c0.03889,0.00122 0.0316,0.04983 0.0401,0.08143c0.02795,0 0.05469,0 0.08143,0c0.0401,-0.08143 0.0875,-0.02066 0.0875,-0.02066l0.07535,-0.02066c0.02795,0.20295 0.18837,-0.05104 0.20295,-0.12153l0.06076,-0.0474l-0.02066,-0.07535c0.11545,-0.03281 0.10452,0.05712 0.20295,0.04132l-0.02066,0.07413l0.06076,0.0474c-0.15313,0.17014 0.31841,0.22483 0.36581,0.08143c-0.1033,-0.00365 -0.19323,-0.02309 -0.24306,-0.08143l0.06198,-0.0474l-0.02188,-0.07413c0.21875,0.03889 0.46424,0.05104 0.73161,0.0401c0.00851,-0.03281 0.04132,-0.0401 0.04132,-0.08143l0.06076,0.02066l0.06198,-0.02066c0.05347,0.04132 0.12275,0.06684 0.16163,0.12275c0.23212,0.04254 0.23698,-0.14097 0.40713,-0.16285c0.21511,0.20417 0.73039,0.36337 0.97467,0.08143c0.02552,0.21997 0.33178,0.01701 0.56998,0.08143c0.06076,0.25521 0.39497,0.2783 0.56754,0.40591c0.06806,0.04983 0.05104,0.13247 0.12396,0.12153c-0.09479,0.29896 0.02309,0.80939 -0.16407,1.01599c0.31962,1.51548 0.13368,3.05405 0.12275,4.75303c-0.21268,-0.00851 -0.40591,0 -0.56876,0.0401c-0.00365,0.23455 0.11059,0.34879 0.16285,0.52866c-0.5323,0.22118 -0.27587,0.99533 0.12153,1.17762c-0.0474,0.38647 0.03038,0.64654 0.20295,0.81304c-0.12396,0.20782 -0.19688,0.54202 -0.08021,0.77171c-0.14462,0.17865 -0.12639,0.52379 -0.12275,0.85314c-0.12761,0.05347 -0.24671,-0.21875 -0.28316,0c-0.01337,0.29653 0.48977,0.15313 0.61008,0.20295c-0.02795,2.59952 0.05347,5.30843 -0.04132,7.84111c-0.52501,-0.24549 -1.47537,-0.78387 -2.11219,-0.28438c0.10209,0.03281 0.21754,0.05347 0.36581,0.03889l-0.02066,0.0632l0.06076,0.01944c-0.0559,0.02552 -0.00486,0.15677 -0.08021,0.16407c-0.12518,0.02795 -0.07778,-0.11302 -0.20295,-0.08143c-0.37674,0.36094 -1.20315,0.23091 -1.62485,0c-0.32935,0.12518 -0.79481,0.07656 -0.97589,-0.16407c-0.15556,0.06198 -0.28803,0.14584 -0.40591,0.24549c-0.39133,-0.0401 -0.63439,0.06927 -0.93457,0.12153c-0.07049,-0.04132 -0.05104,-0.2382 -0.16285,-0.12153l-0.0474,-0.06198l-0.07535,0.01944c-0.08629,-0.09479 -0.33421,-0.01094 -0.36581,0.08143l-0.07535,-0.01944l-0.0474,0.06076c-0.55661,0.10573 -1.39395,-0.06806 -1.82781,0.16163l-0.06198,-0.01944l-0.06076,-0.02066c-0.11424,-0.06198 -0.16771,0.01337 -0.32448,-0.04254c-0.00122,0.0717 0.02917,0.10695 0.08143,0.12396l-0.02188,0.07413l0.06198,0.04861c-0.22848,0.1592 -0.37917,-0.10938 -0.48733,-0.20295c-0.13125,0.00243 -0.02795,0.24063 -0.20295,0.20295c-0.175,-0.25157 -0.6988,-0.30261 -1.0962,-0.20295c-0.13854,0.09236 0.18594,0.15677 0.0401,0.24184c-0.20417,-0.04132 -0.23091,0.09236 -0.40591,0.08143c-0.10695,-0.31233 -0.35487,-0.4849 -0.48733,-0.77293l-0.04254,-0.01701l-0.0401,0.01944c0.00365,-0.05712 0.00608,-0.11424 -0.04132,-0.12153c0.00608,0.03403 -0.01701,0.03767 -0.04132,0.0401c0,0.02674 0,0.05469 0,0.08021l-0.02066,0.04132l0.02066,0.0401c-0.16285,0.0401 -0.35608,0.04983 -0.56876,0.04132c-0.12882,-0.00608 -0.12031,-0.15191 -0.24306,-0.16285c-0.12761,-0.00729 -0.01701,0.22726 -0.20295,0.16285c-0.19566,-0.03646 -0.17014,-0.29167 -0.3257,-0.36581c-0.18229,-0.02188 -0.11302,0.21025 -0.20295,0.28316c-0.04254,-0.09358 -0.13854,-0.13125 -0.12153,-0.28316c-0.18108,0.00851 -0.18229,0.19566 -0.28438,0.28316c-0.0401,-0.08264 -0.15556,-0.0875 -0.28438,-0.08021l-0.06076,-0.02188l-0.01944,0.06076c-0.08386,-0.02188 -0.08021,-0.12153 -0.16285,-0.03889c-0.11181,-0.01823 -0.03767,0.1507 -0.12153,0.16285c-0.01458,-0.20174 -0.10695,0.03281 -0.20295,0c-0.02431,-0.12518 -0.01094,-0.28803 -0.16285,-0.28438c-0.07413,0.0474 -0.02674,0.21511 -0.20295,0.16163c-0.08386,-0.01094 -0.00972,-0.17865 -0.12153,-0.16163c-0.05833,0.11788 -0.17257,0.17986 -0.36702,0.16163c-0.06076,0.04861 -0.0474,0.17136 -0.16163,0.16407c-0.00608,-0.18229 0.01458,-0.39376 -0.16163,-0.40591c-0.21268,-0.06441 -0.02674,0.27223 -0.20417,0.24184c-0.18229,0.0632 0.02188,-0.26494 -0.16163,-0.20295c-0.16042,-0.01094 -0.01215,0.28681 -0.12153,0.32692c-0.01701,-0.12153 -0.19202,-0.07899 -0.24306,-0.16285l0.01944,-0.06198l-0.06076,-0.02066c0.00729,-0.03281 0.04132,-0.0401 0.04132,-0.08143c-0.10087,-0.00486 -0.19809,-0.00608 -0.20417,0.08143l-0.06076,0.02066l0.02188,0.06198c-0.32327,0.03767 -0.53959,-0.02917 -0.73161,-0.12275c-0.05712,0.11667 0.11059,0.2066 0,0.24306c-0.1507,-0.18716 -0.4448,-0.00486 -0.61008,0.04132c0.01215,-0.10816 0.01458,-0.20417 -0.12153,-0.16285l-0.06076,-0.02188l-0.02188,0.06076c-0.0401,0 -0.03038,-0.04861 -0.0401,-0.08021c-0.21632,-0.06441 -0.21025,0.30139 -0.32448,0.20417c-0.07656,-0.06076 -0.00486,-0.26615 -0.08143,-0.32692c-0.16163,-0.02795 -0.45088,0.0717 -0.48733,-0.08021c0.36337,-1.08891 -0.14219,-2.53511 0.20295,-3.73704c0.14584,-0.03281 0.19688,0.09115 0.28438,0c-0.0316,-0.77658 0.08264,-1.4061 0.08143,-2.15229c-0.1592,-0.00243 -0.30504,-0.02066 -0.40713,-0.08143c-0.07049,-0.69394 -0.17014,-1.72329 0,-2.39657c0.12396,-0.03038 0.07656,0.11181 0.20174,0.08143c0,-0.02674 0,-0.05469 0,-0.08021l0.05469,-0.04983l-0.01458,-0.07292c0.1033,-0.04375 0.14219,0.175 0.20295,0.0401c-0.07049,-0.22483 -0.00851,-0.55661 0,-0.77171c-0.43872,-0.18108 -0.51407,-1.03057 -0.24306,-1.462c-0.14948,-0.44723 -0.21511,-0.97589 -0.28316,-1.50333c-0.06684,0.02188 -0.22605,0.01337 -0.20295,-0.24428c0.09722,-0.01701 0.0875,0.07535 0.20295,0.04132c-0.11788,-0.29289 0.02917,-0.83005 -0.04132,-1.13752c-0.00122,-0.00608 -0.07413,0.00486 -0.08143,0l-0.01944,-0.06076l-0.06076,-0.02066c0,-0.01337 0,-0.02674 0,-0.04132l0.06076,-0.01944l0.01944,-0.06076c0.03646,0.26737 0.17743,0.02795 0,-0.0401l-0.01944,-0.06076l-0.06076,0.02066c-0.02431,-0.12882 0.07656,-0.12639 0,-0.20295c0.07292,-0.00486 0.08507,0.04983 0.16163,0.0401c0.05712,-0.95887 0.13976,-1.89101 0.12153,-2.92523c-0.01701,-0.07899 -0.15677,-0.03281 -0.12153,-0.16407c0.01944,-0.35973 0.09115,-0.6672 0.12153,-1.01477c0.34636,0.33299 1.06339,0.16771 1.34169,-0.12153c0.02309,0.09844 0.03403,0.20782 0.16163,0.20295c0.23698,-0.00729 0.4764,-0.01701 0.60886,0.08021c0.06198,-0.0474 0.04861,-0.16893 0.16285,-0.16163c0.06927,0.02431 -0.00365,0.19202 0.08021,0.20295c0.09358,-0.16893 0.38525,-0.21997 0.40834,0.04132l0.01944,0.06076l0.02066,0.06076c-0.01458,0 -0.02674,0 -0.0401,0c0,0.0401 0,0.08143 0,0.12275c0.0401,0 0.08021,0 0.12153,0c0.00365,-0.05833 0.00608,-0.11545 -0.04132,-0.12275l0.02188,-0.07413l-0.06076,-0.0474c0.22483,-0.29896 0.86286,0.05712 1.1363,-0.16285c0.1908,0.13125 0.58091,0.17014 0.69029,-0.04132c0.33785,0.5797 1.52155,0.07049 2.11219,0.40591c0.09479,-0.0401 0.04983,-0.22118 0.12275,-0.28438c0.14827,0.01337 0.26372,-0.00608 0.36581,-0.0401c0.0401,-0.05469 0.06684,-0.12275 0.12153,-0.16285l0.04618,0.06076l0.07535,-0.02066c0.13004,0.14219 0.0158,-0.30626 0.16285,-0.28316c0.15313,0.02674 0.429,0.08993 0.56876,0c-0.01094,-0.06563 0.03889,-0.07049 0.04132,-0.12153c0.01337,0 0.02552,0 0.0401,0c0,0.01337 0,0.02674 0,0.04132c0.22362,0.05833 0.44358,0.12396 0.69029,0.16042l-0.02066,0.07413l0.06198,0.0474c-0.14219,0.13247 0.18716,0.18716 0.24306,0.12275c0.00122,-0.06927 -0.02917,-0.10452 -0.08021,-0.12275l0.02066,-0.06076l-0.02066,-0.06076c0.12396,-0.07778 0.32935,-0.07413 0.40469,-0.20295c0.01337,0 0.02795,0 0.04132,0zM22.56644,14.67712c0.04132,0 0.08143,0 0.12275,0c0.00122,-0.06927 -0.0316,-0.1033 -0.08143,-0.12275c0.00243,0.05712 -0.01944,0.08993 -0.04132,0.12275zM23.21663,14.63702c0.04132,0 0.04861,0.03281 0.08143,0.0401c-0.00243,-0.0632 0.00608,-0.14097 -0.08143,-0.12153c0,0.02674 0,0.05347 0,0.08143zM24.67985,14.71844c0.09722,-0.09844 -0.13368,-0.10573 -0.12275,-0.04132c0,-0.00243 0.13733,0.02552 0.12275,0.04132zM27.48354,14.75855c0.02552,0 0.05469,0 0.08021,0c0,-0.02674 0,-0.05469 0,-0.08143c-0.02552,0 -0.05469,0 -0.08021,0c0,0.02674 0,0.05469 0,0.08143zM16.3514,15.00282c0.00122,-0.12396 -0.14219,-0.10087 -0.24428,-0.12153c-0.02309,0.14462 0.12153,0.12275 0.24428,0.12153zM30.93621,15.00282c0.0401,0 0.08143,0 0.12275,0c0,-0.04132 0,-0.08143 0,-0.12153c-0.0401,0 -0.08143,0 -0.12275,0c0,0.0401 0,0.08021 0,0.12153zM15.61979,15.04293c0.04132,0 0.08143,0 0.12275,0c0,-0.0401 0,-0.08143 0,-0.12153c-0.04132,0 -0.08143,0 -0.12275,0c0,0.0401 0,0.08143 0,0.12153zM18.18043,15.12435c0.0401,0 0.08021,0 0.12153,0c0,-0.04132 0,-0.08143 0,-0.12275c-0.04132,0 -0.08143,0 -0.12153,0c0,0.04132 0,0.08264 0,0.12275zM21.91747,15.24588c0.00608,-0.04861 0.0717,-0.09236 0,-0.12153c-0.00608,0.0474 -0.07292,0.09115 0,0.12153zM20.12977,19.14578c-0.11788,-0.03524 -0.04497,-0.06076 -0.0401,-0.16285c-0.24306,-0.19445 -0.58577,-0.41928 -0.93578,-0.65019c-0.48369,-0.31962 -0.80453,-0.71338 -1.50211,-0.60886c-0.41199,0.06198 -0.66963,0.28803 -1.13752,0.36581c0.3257,0.49098 0.76807,0.8896 1.17762,1.30037c1.19707,1.19585 2.34431,2.52053 3.53531,3.77715c0.1191,0.04132 0.19931,0.05833 0.24428,0.08143l-0.02188,0.06076l0.06198,-0.02066c-0.02917,0.23091 0.19445,0.31112 0.36581,0.48855c0.13125,0.13854 0.21997,0.33785 0.32448,0.44723c0.08629,0.08993 0.38768,0.18229 0.36459,0.40591c0.27344,0.07292 0.37553,0.3731 0.56876,0.56998c0.11181,0.11181 0.30018,0.175 0.40713,0.28316c0.03038,0.02917 0.02309,0.14097 0.0401,0.16285c0.04618,0.0559 0.11667,0.06198 0.16285,0.12153c0.14341,0.18959 0.34393,0.37188 0.52866,0.56998c0.12639,0.06806 0.11424,-0.20295 0.16163,-0.08143c0.12518,0.05469 0.01337,0.11424 0.04132,0.28438c0.13125,0.11302 0.20903,0.2783 0.36581,0.36581c-0.00729,-0.0474 0.00851,-0.07292 0.03889,-0.08021c0.06684,0.1507 0.14462,0.28803 0.28438,0.36581c-0.01094,-0.1191 0.01094,-0.13976 0.08143,-0.08143c0.08507,0.15677 -0.06076,0.06684 -0.0401,0.24428c0.52744,0.62709 1.25662,1.24082 1.82781,1.90923c0.19445,0.22726 0.44723,0.68543 0.73161,0.85314c0.53595,0.31598 1.76218,0.21754 2.47799,0.20295c-0.00608,-0.08629 0.06684,-0.0474 0.12275,-0.12275c0.24914,-0.33542 0.43751,-1.04151 0.65019,-1.70628c0.20052,-0.63196 0.45574,-1.11686 0.40591,-1.70506c-0.00486,-0.05104 -0.0559,-0.20903 -0.08143,-0.24428c-0.01337,-0.01944 -0.3415,-0.21268 -0.44601,-0.28438c-0.51286,-0.35244 -1.05123,-0.70366 -1.62485,-1.01477l0.01944,-0.06198l-0.06076,0.02188c-0.00972,-0.01458 0.01337,-0.07292 0,-0.08021c-2.60196,-1.81687 -5.31329,-3.50128 -7.92132,-5.32301c-0.08021,0 -0.16285,0 -0.24428,0c-0.10452,-0.31476 -0.3974,-0.32327 -0.56876,-0.32935c0.20052,-0.14584 -0.19445,-0.25278 -0.3257,-0.32448l-0.01944,-0.06076zM29.1084,21.09512c0.01458,0.05347 0.0717,0.06441 0.08021,0.12275c0.20903,-0.06927 0.18594,0.10816 0.40713,0.20295c0.09169,-0.89877 0.4193,-1.95802 0.40625,-2.70579c-0.00801,0.05208 -0.11861,-0.02759 -0.12309,-0.0578c0.08143,0.01337 0.12761,-0.00851 0.12275,-0.08021c-0.37796,-0.32448 -0.74498,-0.7547 -1.30037,-0.77293c-0.42292,-0.01337 -0.96373,0.24184 -1.46079,0.36581c-0.38403,0.09479 -0.75713,0.19202 -1.09742,0.28438c-0.11302,0.0316 -0.29167,-0.02674 -0.3257,0.12396c1.08891,0.84342 2.18025,1.72694 3.25093,2.47799l-0.02188,0.06076zM18.66655,30.55987c1.02814,0.07899 2.11219,-0.58213 3.21082,-0.81182c-0.04375,-0.08386 -0.1033,-0.2224 -0.16285,-0.28316c0.02066,0.02188 -0.02674,0.04983 -0.0401,0.0401c-0.30382,-0.23698 -0.56998,-0.62345 -0.89324,-0.93457c-0.8738,-0.83977 -1.86548,-1.77798 -2.76237,-2.60074c-0.30747,0.73404 -0.63196,1.52763 -0.97589,2.35525c-0.10573,0.25764 -0.32327,0.59185 -0.28438,0.81304c0.04861,0.26615 1.0087,0.8264 1.30037,1.0962c0.16285,0.15191 0.33056,0.26494 0.56998,0.32448l0.01944,0.0632z" fill="#b84148" stroke-width="0"></path><path d="M2,24c0,-12.15026 9.84974,-22 22,-22c12.15026,0 22,9.84974 22,22c0,12.15026 -9.84974,22 -22,22c-12.15026,0 -22,-9.84974 -22,-22z" id="base 1 1 1" fill="none" stroke-width="1"></path><g fill="#000000" stroke-width="1" font-family="Roboto, sans-serif" font-weight="normal" font-size="14" text-anchor="start"></g><rect x="2" y="2" width="44" height="22" fill="none" stroke-width="1"></rect><path d="M2,24v-22h44v22z" fill="none" stroke-width="1"></path><path d="M2,24v-22h44v22z" fill="none" stroke-width="1"></path><path d="M2,24v-22h44v22z" fill="none" stroke-width="1"></path><path d="M2,24v-22h44v22z" fill="none" stroke-width="1"></path></g></svg>